<svg width="44" height="44" viewBox="0 0 44 44" fill="none" xmlns="http://www.w3.org/2000/svg">
<circle cx="22" cy="22" r="21.5" stroke="#A7A7A7"/>
<path d="M25.1831 12.6149C24.4812 12.224 23.671 12 22.8029 12H21.0999C18.1555 12 15.8774 14.5806 16.2426 17.5023L16.3219 18.1372C16.4681 19.3063 16.041 20.4741 15.1751 21.2731C13.9924 22.3645 13.6638 24.1016 14.3662 25.5496L14.4695 25.7627C15.1333 27.1311 16.5205 28 18.0414 28H26.2623C27.5656 28 28.7785 27.3342 29.4783 26.2347C30.4661 24.6826 30.2045 22.6465 28.8564 21.3945L28.8125 21.3538C28.3991 20.9698 28.0805 20.5067 27.8697 20C27.7836 19.7931 27.7154 19.5789 27.6662 19.3599M19.1832 31L19.4832 31.4C20.8332 33.2 23.5332 33.2 24.8832 31.4L25.1832 31" stroke="#72777A" stroke-width="1.5" stroke-linecap="round"/>
<path d="M29.1831 16C29.1831 17.1046 28.2877 18 27.1831 18C26.0785 18 25.1831 17.1046 25.1831 16C25.1831 14.8954 26.0785 14 27.1831 14C28.2877 14 29.1831 14.8954 29.1831 16Z" fill="#FF6D6D"/>
</svg>
