<svg width="17" height="16" viewBox="0 0 17 16" fill="none" xmlns="http://www.w3.org/2000/svg">
<g clip-path="url(#clip0_443_3729)">
<rect width="16.9838" height="14.9924" transform="translate(17 14.9924) rotate(179.938)" fill="white"/>
<path d="M9.71549 12.5891L15.6998 3.74954C15.8231 3.56049 15.8883 3.34623 15.8888 3.12808C15.8892 2.90993 15.8249 2.69548 15.7024 2.50609C15.5798 2.3167 15.4031 2.15895 15.19 2.04855C14.9769 1.93815 14.7348 1.87893 14.4876 1.8768L2.49995 1.8898C2.25284 1.89247 2.0108 1.9522 1.79793 2.06307C1.58506 2.17393 1.40877 2.33206 1.28659 2.52172C1.16442 2.71138 1.10062 2.92596 1.10155 3.14411C1.10248 3.36226 1.1681 3.57638 1.29189 3.76516L7.29531 12.5917C7.42166 12.7751 7.59945 12.9267 7.81153 13.0319C8.02361 13.137 8.26281 13.1921 8.50605 13.1918C8.7493 13.1915 8.98838 13.1359 9.20023 13.0304C9.41208 12.9248 9.58954 12.7728 9.71549 12.5891Z" fill="black" stroke="#1E1E1E" stroke-linecap="round" stroke-linejoin="round"/>
</g>
<defs>
<clipPath id="clip0_443_3729">
<rect width="16.9838" height="14.9924" fill="white" transform="translate(17 14.9924) rotate(179.938)"/>
</clipPath>
</defs>
</svg>
