<svg width="18" height="16" viewBox="0 0 18 16" fill="none" xmlns="http://www.w3.org/2000/svg">
<g clip-path="url(#clip0_443_4016)">
<rect width="16.9838" height="14.9924" transform="translate(0 0.131165) rotate(-0.442539)" fill="white"/>
<path d="M7.30028 2.48613L1.37483 11.3652C1.25272 11.5551 1.18898 11.7697 1.18998 11.9879C1.19097 12.2061 1.25665 12.4201 1.38049 12.6086C1.50433 12.7972 1.68201 12.9538 1.89585 13.0628C2.10969 13.1718 2.35224 13.2294 2.59936 13.2298L14.5867 13.1373C14.8338 13.1329 15.0754 13.0716 15.2876 12.9593C15.4997 12.8471 15.6749 12.6878 15.7958 12.4973C15.9168 12.3068 15.9791 12.0918 15.9767 11.8737C15.9744 11.6555 15.9073 11.4419 15.7823 11.2539L9.72039 2.46744C9.59283 2.28482 9.41403 2.13441 9.20126 2.03071C8.98849 1.927 8.74893 1.87351 8.50569 1.87539C8.26245 1.87727 8.02375 1.93446 7.81261 2.04143C7.60146 2.14841 7.42501 2.30157 7.30028 2.48613Z" fill="black" stroke="#1E1E1E" stroke-linecap="round" stroke-linejoin="round"/>
</g>
<defs>
<clipPath id="clip0_443_4016">
<rect width="16.9838" height="14.9924" fill="white" transform="translate(0 0.131165) rotate(-0.442539)"/>
</clipPath>
</defs>
</svg>
