<?xml version="1.0" standalone="no"?>
<!DOCTYPE svg PUBLIC "-//W3C//DTD SVG 20010904//EN"
 "http://www.w3.org/TR/2001/REC-SVG-20010904/DTD/svg10.dtd">
<svg version="1.0" xmlns="http://www.w3.org/2000/svg"
 width="512.000000pt" height="512.000000pt" viewBox="0 0 512.000000 512.000000"
 preserveAspectRatio="xMidYMid meet">

<g transform="translate(0.000000,512.000000) scale(0.100000,-0.100000)"
fill="#000000" stroke="none">
<path d="M1164 5111 c-17 -4 -45 -15 -62 -24 -51 -25 -339 -255 -416 -332
-486 -484 -482 -1386 9 -2380 448 -909 1219 -1721 2009 -2117 619 -311 1177
-340 1598 -84 89 54 402 301 432 341 64 83 79 207 37 296 -25 54 -733 957
-792 1011 -50 46 -114 68 -199 68 -87 0 -131 -23 -285 -146 -214 -171 -243
-184 -401 -184 -282 0 -564 145 -839 431 -364 378 -567 834 -525 1177 13 103
48 209 85 258 15 19 102 94 193 167 205 163 227 195 227 322 0 62 -5 90 -22
125 -32 64 -753 978 -803 1017 -66 53 -163 73 -246 54z"/>
</g>
</svg>
