<svg width="34" height="32" viewBox="0 0 34 32" fill="none" xmlns="http://www.w3.org/2000/svg">
<path d="M32.5 16C32.5 23.9238 25.6474 30.5 17 30.5C8.35262 30.5 1.5 23.9238 1.5 16C1.5 8.07624 8.35262 1.5 17 1.5C25.6474 1.5 32.5 8.07624 32.5 16Z" fill="#4392F9" stroke="white" stroke-width="3"/>
<path d="M11.7706 20.7904C11.7425 20.7666 11.7143 20.7427 11.7143 20.719C11.6019 20.5999 11.4895 20.4808 11.3209 20.3856C11.2927 20.3618 11.2927 20.3618 11.2646 20.3379C11.2365 20.3141 11.2083 20.3141 11.1803 20.2902C11.0117 20.195 10.815 20.1235 10.6464 20.0521C10.6182 20.0521 10.6182 20.0521 10.5901 20.0282C10.562 20.0282 10.5338 20.0282 10.5338 20.0044L10 21.5526V21.624C10 21.6954 10.0281 21.7431 10.0843 21.7908C10.1124 21.8146 10.1405 21.8385 10.1685 21.8385H10.2248H10.2811H10.3653L12.1359 21.386L12.0797 21.2907C12.0237 21.1238 11.9111 20.9572 11.7706 20.7904Z" fill="white"/>
<path d="M24.6432 10.3844L23.2962 9.25356C23.1666 9.14481 23.0112 9.07961 22.8557 9.03607C22.7002 8.99253 22.519 8.99253 22.3635 9.0143C22.1304 9.03607 21.9231 9.12304 21.7678 9.27533L20.6797 10.1888L23.5293 12.6681L24.6431 11.733C24.6691 11.7112 24.6691 11.6895 24.695 11.6895C25.0576 11.2761 25.0317 10.7324 24.6431 10.3844L24.6432 10.3844Z" fill="white"/>
<path d="M13.6591 19.1059L13.2469 18.7528L21.0197 12.0952L19.6065 10.8342L11.5982 17.6937C11.5688 17.7189 11.5393 17.7693 11.5393 17.7945L11.451 17.9962L11.0684 19.1058H11.1273C12.1283 19.358 12.8938 20.0389 13.1883 20.8711V20.9216L14.7486 20.518H14.7781C14.7781 20.518 14.8076 20.518 14.8076 20.4928C14.837 20.4928 14.837 20.4676 14.8665 20.4676L22.8159 13.6586L21.4028 12.3976L13.6591 19.1059Z" fill="white"/>
</svg>
