<svg width="15" height="13" viewBox="0 0 15 13" fill="none" xmlns="http://www.w3.org/2000/svg">
    <path d="M1.77059 11.7904C1.74246 11.7666 1.71433 11.7427 1.71433 11.719C1.60193 11.5999 1.48954 11.4808 1.32088 11.3856C1.29275 11.3618 1.29275 11.3618 1.26461 11.3379C1.23648 11.3141 1.20834 11.3141 1.18035 11.2902C1.01169 11.195 0.815043 11.1235 0.646373 11.0521C0.61824 11.0521 0.618239 11.0521 0.590105 11.0282C0.561971 11.0282 0.533837 11.0282 0.533837 11.0044L0 12.5526V12.624C0 12.6954 0.0281336 12.7431 0.0842618 12.7908C0.112395 12.8146 0.140529 12.8385 0.168523 12.8385H0.224791H0.281059H0.365321L2.13592 12.386L2.07965 12.2907C2.02366 12.1238 1.91112 11.9572 1.77059 11.7904Z" fill="white"/>
    <path d="M14.6431 1.38442L13.2961 0.253555C13.1666 0.144813 13.0111 0.0796105 12.8556 0.0360699C12.7002 -0.0074706 12.5189 -0.00747042 12.3635 0.0143004C12.1304 0.0360701 11.923 0.123043 11.7677 0.275326L10.6796 1.18882L13.5292 3.66812L14.6431 2.73299C14.669 2.71122 14.669 2.68945 14.6949 2.68945C15.0576 2.27615 15.0316 1.73243 14.6431 1.38443L14.6431 1.38442Z" fill="white"/>
    <path d="M3.6591 10.1059L3.24694 9.75283L11.0197 3.09515L9.60655 1.83423L1.59825 8.69366C1.56878 8.7189 1.5393 8.76926 1.5393 8.79451L1.45104 8.9962L1.06836 10.1058H1.1273C2.1283 10.358 2.89384 11.0389 3.18826 11.8711V11.9216L4.74863 11.518H4.7781C4.7781 11.518 4.80757 11.518 4.80757 11.4928C4.83704 11.4928 4.83704 11.4676 4.86652 11.4676L12.8159 4.65856L11.4028 3.39764L3.6591 10.1059Z" fill="white"/>
</svg>
